<?xml version="1.0" encoding="UTF-8" standalone="no"?>
<!DOCTYPE svg PUBLIC "-//W3C//DTD SVG 1.1//EN"
 "http://www.w3.org/Graphics/SVG/1.1/DTD/svg11.dtd">
<!-- Generated by graphviz version 2.43.0 (0)
 -->
<!-- Title: %3 Pages: 1 -->
<svg width="156pt" height="233pt"
 viewBox="0.00 0.00 155.61 232.70" xmlns="http://www.w3.org/2000/svg" xmlns:xlink="http://www.w3.org/1999/xlink">
<g id="graph0" class="graph" transform="scale(1 1) rotate(0) translate(4 228.7)">
<title>%3</title>
<polygon fill="white" stroke="transparent" points="-4,4 -4,-228.7 151.61,-228.7 151.61,4 -4,4"/>
<!-- &#45;1 -->
<g id="node1" class="node">
<title>&#45;1</title>
<polygon fill="lightgray" stroke="black" points="135.75,-224.7 111.75,-224.7 111.75,-207.7 135.75,-207.7 135.75,-224.7"/>
<text text-anchor="middle" x="123.75" y="-213.5" font-family="Times,serif" font-size="9.00">&#45;1</text>
</g>
<!-- 0 -->
<g id="node5" class="node">
<title>0</title>
<ellipse fill="lightblue" stroke="black" cx="123.75" cy="-157.21" rx="14.49" ry="14.49"/>
<text text-anchor="middle" x="123.75" y="-154.51" font-family="Times,serif" font-size="9.00">0</text>
</g>
<!-- &#45;1&#45;&gt;0 -->
<g id="edge1" class="edge">
<title>&#45;1&#45;&gt;0</title>
<path fill="none" stroke="red" stroke-width="0.21" d="M123.75,-207.28C123.75,-200.68 123.75,-190.94 123.75,-181.87"/>
<polygon fill="red" stroke="red" stroke-width="0.21" points="127.25,-181.76 123.75,-171.76 120.25,-181.76 127.25,-181.76"/>
</g>
<!-- &#45;2 -->
<g id="node2" class="node">
<title>&#45;2</title>
<polygon fill="lightgray" stroke="black" points="23.75,-224.7 -0.25,-224.7 -0.25,-207.7 23.75,-207.7 23.75,-224.7"/>
<text text-anchor="middle" x="11.75" y="-213.5" font-family="Times,serif" font-size="9.00">&#45;2</text>
</g>
<!-- &#45;2&#45;&gt;0 -->
<g id="edge2" class="edge">
<title>&#45;2&#45;&gt;0</title>
<path fill="none" stroke="red" stroke-width="0.35" d="M23.7,-209.71C40.92,-201.73 73.62,-186.26 100.75,-171.7 101.42,-171.34 102.1,-170.97 102.79,-170.59"/>
<polygon fill="red" stroke="red" stroke-width="0.35" points="104.72,-173.52 111.67,-165.52 101.25,-167.44 104.72,-173.52"/>
</g>
<!-- 1 -->
<g id="node6" class="node">
<title>1</title>
<ellipse fill="lightblue" stroke="black" cx="58.75" cy="-14.5" rx="14.49" ry="14.49"/>
<text text-anchor="middle" x="58.75" y="-11.8" font-family="Times,serif" font-size="9.00">1</text>
</g>
<!-- &#45;2&#45;&gt;1 -->
<g id="edge3" class="edge">
<title>&#45;2&#45;&gt;1</title>
<path fill="none" stroke="green" stroke-width="0.38" d="M13.53,-207.62C20.06,-179.91 42.76,-83.43 53.3,-38.66"/>
<polygon fill="green" stroke="green" stroke-width="0.38" points="56.76,-39.24 55.64,-28.7 49.94,-37.64 56.76,-39.24"/>
</g>
<!-- &#45;3 -->
<g id="node3" class="node">
<title>&#45;3</title>
<polygon fill="lightgray" stroke="black" points="91.75,-165.71 67.75,-165.71 67.75,-148.71 91.75,-148.71 91.75,-165.71"/>
<text text-anchor="middle" x="79.75" y="-154.51" font-family="Times,serif" font-size="9.00">&#45;3</text>
</g>
<!-- &#45;3&#45;&gt;1 -->
<g id="edge4" class="edge">
<title>&#45;3&#45;&gt;1</title>
<path fill="none" stroke="green" stroke-width="0.3" stroke-dasharray="1,5" d="M78.62,-148.64C75.57,-128.23 67.09,-71.39 62.25,-38.95"/>
<polygon fill="green" stroke="green" stroke-width="0.3" points="65.7,-38.35 60.76,-28.98 58.78,-39.39 65.7,-38.35"/>
</g>
<!-- 891 -->
<g id="node7" class="node">
<title>891</title>
<ellipse fill="white" stroke="black" cx="126.75" cy="-85.85" rx="20.72" ry="20.72"/>
<text text-anchor="middle" x="126.75" y="-83.15" font-family="Times,serif" font-size="9.00">891</text>
</g>
<!-- &#45;3&#45;&gt;891 -->
<g id="edge6" class="edge">
<title>&#45;3&#45;&gt;891</title>
<path fill="none" stroke="green" stroke-width="0.21" d="M84.96,-148.52C90.9,-139.75 100.93,-124.96 109.67,-112.06"/>
<polygon fill="green" stroke="green" stroke-width="0.21" points="112.74,-113.77 115.45,-103.53 106.94,-109.84 112.74,-113.77"/>
</g>
<!-- &#45;4 -->
<g id="node4" class="node">
<title>&#45;4</title>
<polygon fill="lightgray" stroke="black" points="84.75,-224.7 60.75,-224.7 60.75,-207.7 84.75,-207.7 84.75,-224.7"/>
<text text-anchor="middle" x="72.75" y="-213.5" font-family="Times,serif" font-size="9.00">&#45;4</text>
</g>
<!-- &#45;4&#45;&gt;0 -->
<g id="edge5" class="edge">
<title>&#45;4&#45;&gt;0</title>
<path fill="none" stroke="green" stroke-width="0.11" d="M79.84,-207.28C86.92,-199.36 98.07,-186.91 107.35,-176.53"/>
<polygon fill="green" stroke="green" stroke-width="0.11" points="110.23,-178.56 114.29,-168.78 105.01,-173.89 110.23,-178.56"/>
</g>
<!-- &#45;4&#45;&gt;1 -->
<g id="edge9" class="edge">
<title>&#45;4&#45;&gt;1</title>
<path fill="none" stroke="green" stroke-width="0.31" d="M69.53,-207.68C66.07,-199.14 60.79,-184.71 58.75,-171.7 51.45,-125.17 54.05,-69.88 56.48,-39.13"/>
<polygon fill="green" stroke="green" stroke-width="0.31" points="59.99,-39.24 57.35,-28.98 53.01,-38.64 59.99,-39.24"/>
</g>
<!-- 0&#45;&gt;891 -->
<g id="edge8" class="edge">
<title>0&#45;&gt;891</title>
<path fill="none" stroke="green" stroke-width="0.57" d="M124.34,-142.5C124.66,-135.18 125.06,-125.87 125.45,-116.96"/>
<polygon fill="green" stroke="green" stroke-width="0.57" points="128.95,-116.97 125.88,-106.83 121.96,-116.67 128.95,-116.97"/>
</g>
<!-- 891&#45;&gt;1 -->
<g id="edge7" class="edge">
<title>891&#45;&gt;1</title>
<path fill="none" stroke="green" stroke-width="0.17" d="M112.33,-70.14C101.68,-59.29 87.16,-44.47 75.92,-33.01"/>
<polygon fill="green" stroke="green" stroke-width="0.17" points="78.25,-30.38 68.75,-25.69 73.25,-35.28 78.25,-30.38"/>
</g>
</g>
</svg>
