<?xml version="1.0" encoding="UTF-8" standalone="no"?>
<!DOCTYPE svg PUBLIC "-//W3C//DTD SVG 1.1//EN"
 "http://www.w3.org/Graphics/SVG/1.1/DTD/svg11.dtd">
<!-- Generated by graphviz version 2.43.0 (0)
 -->
<!-- Title: %3 Pages: 1 -->
<svg width="120pt" height="90pt"
 viewBox="0.00 0.00 119.99 89.99" xmlns="http://www.w3.org/2000/svg" xmlns:xlink="http://www.w3.org/1999/xlink">
<g id="graph0" class="graph" transform="scale(1 1) rotate(0) translate(4 85.99)">
<title>%3</title>
<polygon fill="white" stroke="transparent" points="-4,4 -4,-85.99 115.99,-85.99 115.99,4 -4,4"/>
<!-- &#45;1 -->
<g id="node1" class="node">
<title>&#45;1</title>
<polygon fill="lightgray" stroke="black" points="58.5,-81.99 34.49,-81.99 34.49,-64.99 58.5,-64.99 58.5,-81.99"/>
<text text-anchor="middle" x="46.5" y="-70.79" font-family="Times,serif" font-size="9.00">&#45;1</text>
</g>
<!-- 0 -->
<g id="node2" class="node">
<title>0</title>
<ellipse fill="lightblue" stroke="black" cx="14.5" cy="-14.5" rx="14.49" ry="14.49"/>
<text text-anchor="middle" x="14.5" y="-11.8" font-family="Times,serif" font-size="9.00">0</text>
</g>
<!-- &#45;1&#45;&gt;0 -->
<g id="edge1" class="edge">
<title>&#45;1&#45;&gt;0</title>
<path fill="none" stroke="green" stroke-width="0.28" d="M42.05,-64.57C37.99,-57.33 31.8,-46.32 26.32,-36.55"/>
<polygon fill="green" stroke="green" stroke-width="0.28" points="29.32,-34.75 21.37,-27.74 23.21,-38.17 29.32,-34.75"/>
</g>
<!-- 1 -->
<g id="node3" class="node">
<title>1</title>
<ellipse fill="lightblue" stroke="black" cx="79.5" cy="-14.5" rx="14.49" ry="14.49"/>
<text text-anchor="middle" x="79.5" y="-11.8" font-family="Times,serif" font-size="9.00">1</text>
</g>
<!-- &#45;1&#45;&gt;1 -->
<g id="edge2" class="edge">
<title>&#45;1&#45;&gt;1</title>
<path fill="none" stroke="green" stroke-width="0.89" d="M51.08,-64.57C55.33,-57.24 61.81,-46.03 67.52,-36.18"/>
<polygon fill="green" stroke="green" stroke-width="0.89" points="70.67,-37.72 72.65,-27.31 64.61,-34.21 70.67,-37.72"/>
</g>
<!-- 0&#45;&gt;0 -->
<g id="edge3" class="edge">
<title>0&#45;&gt;0</title>
<path fill="none" stroke="red" stroke-width="0.43" d="M26.16,-23.58C36.28,-27.72 46.99,-24.69 46.99,-14.5 46.99,-7.81 42.38,-4.2 36.35,-3.69"/>
<polygon fill="red" stroke="red" stroke-width="0.43" points="35.43,-0.29 26.16,-5.42 36.6,-7.19 35.43,-0.29"/>
</g>
<!-- 1&#45;&gt;1 -->
<g id="edge4" class="edge">
<title>1&#45;&gt;1</title>
<path fill="none" stroke="green" stroke-width="0.17" d="M91.16,-23.58C101.28,-27.72 111.99,-24.69 111.99,-14.5 111.99,-7.81 107.38,-4.2 101.35,-3.69"/>
<polygon fill="green" stroke="green" stroke-width="0.17" points="100.43,-0.29 91.16,-5.42 101.6,-7.19 100.43,-0.29"/>
</g>
</g>
</svg>
