<?xml version="1.0" encoding="UTF-8" standalone="no"?>
<!DOCTYPE svg PUBLIC "-//W3C//DTD SVG 1.1//EN"
 "http://www.w3.org/Graphics/SVG/1.1/DTD/svg11.dtd">
<!-- Generated by graphviz version 2.43.0 (0)
 -->
<!-- Title: %3 Pages: 1 -->
<svg width="90pt" height="233pt"
 viewBox="0.00 0.00 90.43 232.70" xmlns="http://www.w3.org/2000/svg" xmlns:xlink="http://www.w3.org/1999/xlink">
<g id="graph0" class="graph" transform="scale(1 1) rotate(0) translate(4 228.7)">
<title>%3</title>
<polygon fill="white" stroke="transparent" points="-4,4 -4,-228.7 86.43,-228.7 86.43,4 -4,4"/>
<!-- &#45;1 -->
<g id="node1" class="node">
<title>&#45;1</title>
<polygon fill="lightgray" stroke="black" points="23.75,-224.7 -0.25,-224.7 -0.25,-207.7 23.75,-207.7 23.75,-224.7"/>
<text text-anchor="middle" x="11.75" y="-213.5" font-family="Times,serif" font-size="9.00">&#45;1</text>
</g>
<!-- 0 -->
<g id="node3" class="node">
<title>0</title>
<ellipse fill="lightblue" stroke="black" cx="32.75" cy="-157.21" rx="14.49" ry="14.49"/>
<text text-anchor="middle" x="32.75" y="-154.51" font-family="Times,serif" font-size="9.00">0</text>
</g>
<!-- &#45;1&#45;&gt;0 -->
<g id="edge3" class="edge">
<title>&#45;1&#45;&gt;0</title>
<path fill="none" stroke="red" stroke-width="0.13" stroke-dasharray="1,5" d="M14.67,-207.28C17.18,-200.45 20.94,-190.25 24.38,-180.91"/>
<polygon fill="red" stroke="red" stroke-width="0.13" points="27.74,-181.91 27.92,-171.32 21.18,-179.49 27.74,-181.91"/>
</g>
<!-- 15 -->
<g id="node5" class="node">
<title>15</title>
<ellipse fill="white" stroke="black" cx="32.75" cy="-89.03" rx="17.86" ry="17.86"/>
<text text-anchor="middle" x="32.75" y="-86.33" font-family="Times,serif" font-size="9.00">15</text>
</g>
<!-- &#45;1&#45;&gt;15 -->
<g id="edge10" class="edge">
<title>&#45;1&#45;&gt;15</title>
<path fill="none" stroke="green" stroke-width="0.14" d="M10.38,-207.48C8.26,-194.11 4.91,-165.88 9.75,-142.71 11.79,-132.92 15.76,-122.71 19.84,-113.92"/>
<polygon fill="green" stroke="green" stroke-width="0.14" points="23.11,-115.22 24.39,-104.7 16.83,-112.12 23.11,-115.22"/>
</g>
<!-- &#45;2 -->
<g id="node2" class="node">
<title>&#45;2</title>
<polygon fill="lightgray" stroke="black" points="64.75,-224.7 40.75,-224.7 40.75,-207.7 64.75,-207.7 64.75,-224.7"/>
<text text-anchor="middle" x="52.75" y="-213.5" font-family="Times,serif" font-size="9.00">&#45;2</text>
</g>
<!-- &#45;2&#45;&gt;0 -->
<g id="edge4" class="edge">
<title>&#45;2&#45;&gt;0</title>
<path fill="none" stroke="green" stroke-width="0.5" d="M49.97,-207.28C47.57,-200.45 43.99,-190.25 40.71,-180.91"/>
<polygon fill="green" stroke="green" stroke-width="0.5" points="43.96,-179.6 37.35,-171.32 37.36,-181.91 43.96,-179.6"/>
</g>
<!-- &#45;2&#45;&gt;15 -->
<g id="edge1" class="edge">
<title>&#45;2&#45;&gt;15</title>
<path fill="none" stroke="green" stroke-width="0.25" d="M58.1,-207.51C66.67,-194.18 81.75,-166.01 73.75,-142.71 69.44,-130.16 60.79,-118.31 52.54,-109.03"/>
<polygon fill="green" stroke="green" stroke-width="0.25" points="54.92,-106.45 45.51,-101.59 49.83,-111.26 54.92,-106.45"/>
</g>
<!-- 0&#45;&gt;0 -->
<g id="edge5" class="edge">
<title>0&#45;&gt;0</title>
<path fill="none" stroke="green" stroke-width="0.53" d="M44.41,-166.29C54.53,-170.43 65.24,-167.4 65.24,-157.21 65.24,-150.52 60.63,-146.91 54.6,-146.4"/>
<polygon fill="green" stroke="green" stroke-width="0.53" points="53.68,-143 44.41,-148.13 54.85,-149.9 53.68,-143"/>
</g>
<!-- 0&#45;&gt;15 -->
<g id="edge7" class="edge">
<title>0&#45;&gt;15</title>
<path fill="none" stroke="red" stroke-width="0.36" stroke-dasharray="1,5" d="M27.29,-143.45C26.15,-135.7 25.76,-125.52 26.13,-116.13"/>
<polygon fill="red" stroke="red" stroke-width="0.36" points="29.63,-116.26 26.87,-106.03 22.65,-115.75 29.63,-116.26"/>
</g>
<!-- 47 -->
<g id="node4" class="node">
<title>47</title>
<ellipse fill="white" stroke="black" cx="64.75" cy="-17.68" rx="17.86" ry="17.86"/>
<text text-anchor="middle" x="64.75" y="-14.98" font-family="Times,serif" font-size="9.00">47</text>
</g>
<!-- 47&#45;&gt;0 -->
<g id="edge9" class="edge">
<title>47&#45;&gt;0</title>
<path fill="none" stroke="green" stroke-width="0.38" stroke-dasharray="1,5" d="M71.62,-34.15C78.58,-52.15 87.11,-82.5 77.75,-106.71 72.51,-120.25 61.66,-132.37 51.93,-141.23"/>
<polygon fill="green" stroke="green" stroke-width="0.38" points="49.49,-138.7 44.16,-147.86 54.04,-144.03 49.49,-138.7"/>
</g>
<!-- 15&#45;&gt;0 -->
<g id="edge2" class="edge">
<title>15&#45;&gt;0</title>
<path fill="none" stroke="green" stroke-width="0.32" d="M38.62,-106.03C39.54,-114.19 39.74,-124.27 39.21,-133.25"/>
<polygon fill="green" stroke="green" stroke-width="0.32" points="35.7,-133.15 38.21,-143.45 42.67,-133.84 35.7,-133.15"/>
</g>
<!-- 15&#45;&gt;47 -->
<g id="edge8" class="edge">
<title>15&#45;&gt;47</title>
<path fill="none" stroke="green" stroke-width="0.12" d="M39.85,-72.64C43.83,-64.02 48.88,-53.07 53.39,-43.29"/>
<polygon fill="green" stroke="green" stroke-width="0.12" points="56.66,-44.57 57.67,-34.03 50.3,-41.64 56.66,-44.57"/>
</g>
<!-- 15&#45;&gt;15 -->
<g id="edge6" class="edge">
<title>15&#45;&gt;15</title>
<path fill="none" stroke="green" stroke-width="0.12" d="M46.66,-100.14C57.44,-104.29 68.43,-100.59 68.43,-89.03 68.43,-81.27 63.47,-77.05 56.94,-76.38"/>
<polygon fill="green" stroke="green" stroke-width="0.12" points="56.03,-72.98 46.66,-77.93 57.07,-79.9 56.03,-72.98"/>
</g>
</g>
</svg>
