<?xml version="1.0" encoding="UTF-8" standalone="no"?>
<!DOCTYPE svg PUBLIC "-//W3C//DTD SVG 1.1//EN"
 "http://www.w3.org/Graphics/SVG/1.1/DTD/svg11.dtd">
<!-- Generated by graphviz version 2.43.0 (0)
 -->
<!-- Title: %3 Pages: 1 -->
<svg width="235pt" height="93pt"
 viewBox="0.00 0.00 235.11 92.82" xmlns="http://www.w3.org/2000/svg" xmlns:xlink="http://www.w3.org/1999/xlink">
<g id="graph0" class="graph" transform="scale(1 1) rotate(0) translate(4 88.82)">
<title>%3</title>
<polygon fill="white" stroke="transparent" points="-4,4 -4,-88.82 231.11,-88.82 231.11,4 -4,4"/>
<!-- dy -->
<g id="node1" class="node">
<title>dy</title>
<polygon fill="lightgray" stroke="black" points="125.7,-84.82 100.7,-84.82 100.7,-67.82 125.7,-67.82 125.7,-84.82"/>
<text text-anchor="middle" x="113.2" y="-73.62" font-family="Times,serif" font-size="9.00">dy</text>
</g>
<!-- S -->
<g id="node3" class="node">
<title>S</title>
<ellipse fill="lightblue" stroke="black" cx="162.2" cy="-15.91" rx="14.71" ry="14.71"/>
<text text-anchor="middle" x="162.2" y="-13.21" font-family="Times,serif" font-size="9.00">S</text>
</g>
<!-- dy&#45;&gt;S -->
<g id="edge1" class="edge">
<title>dy&#45;&gt;S</title>
<path fill="none" stroke="red" stroke-width="0.17" stroke-dasharray="1,5" d="M119.61,-67.68C126.39,-59.6 137.35,-46.54 146.45,-35.69"/>
<polygon fill="red" stroke="red" stroke-width="0.17" points="149.2,-37.85 152.95,-27.94 143.84,-33.35 149.2,-37.85"/>
</g>
<!-- L -->
<g id="node4" class="node">
<title>L</title>
<ellipse fill="lightblue" stroke="black" cx="15.2" cy="-15.91" rx="15.4" ry="15.4"/>
<text text-anchor="middle" x="15.2" y="-13.21" font-family="Times,serif" font-size="9.00">L</text>
</g>
<!-- dy&#45;&gt;L -->
<g id="edge2" class="edge">
<title>dy&#45;&gt;L</title>
<path fill="none" stroke="green" stroke-width="0.11" d="M100.58,-68.02C85.8,-59.46 60.63,-44.77 39.2,-31.82 38.28,-31.26 37.34,-30.69 36.38,-30.11"/>
<polygon fill="green" stroke="green" stroke-width="0.11" points="38.22,-27.13 27.87,-24.86 34.55,-33.09 38.22,-27.13"/>
</g>
<!-- R -->
<g id="node5" class="node">
<title>R</title>
<ellipse fill="lightblue" stroke="black" cx="64.2" cy="-15.91" rx="15.62" ry="15.62"/>
<text text-anchor="middle" x="64.2" y="-13.21" font-family="Times,serif" font-size="9.00">R</text>
</g>
<!-- dy&#45;&gt;R -->
<g id="edge3" class="edge">
<title>dy&#45;&gt;R</title>
<path fill="none" stroke="green" stroke-width="0.37" d="M106.8,-67.68C100.1,-59.7 89.32,-46.86 80.29,-36.08"/>
<polygon fill="green" stroke="green" stroke-width="0.37" points="82.92,-33.78 73.81,-28.37 77.56,-38.28 82.92,-33.78"/>
</g>
<!-- U -->
<g id="node6" class="node">
<title>U</title>
<ellipse fill="lightblue" stroke="black" cx="113.2" cy="-15.91" rx="15.82" ry="15.82"/>
<text text-anchor="middle" x="113.2" y="-13.21" font-family="Times,serif" font-size="9.00">U</text>
</g>
<!-- dy&#45;&gt;U -->
<g id="edge4" class="edge">
<title>dy&#45;&gt;U</title>
<path fill="none" stroke="red" stroke-width="0.35" d="M113.2,-67.68C113.2,-61.12 113.2,-51.28 113.2,-42"/>
<polygon fill="red" stroke="red" stroke-width="0.35" points="116.7,-41.98 113.2,-31.98 109.7,-41.98 116.7,-41.98"/>
</g>
<!-- D -->
<g id="node7" class="node">
<title>D</title>
<ellipse fill="lightblue" stroke="black" cx="211.2" cy="-15.91" rx="15.82" ry="15.82"/>
<text text-anchor="middle" x="211.2" y="-13.21" font-family="Times,serif" font-size="9.00">D</text>
</g>
<!-- dy&#45;&gt;D -->
<g id="edge5" class="edge">
<title>dy&#45;&gt;D</title>
<path fill="none" stroke="green" stroke-width="0.71" d="M126.01,-67.68C141.97,-58.17 169.51,-41.76 188.95,-30.17"/>
<polygon fill="green" stroke="green" stroke-width="0.71" points="190.96,-33.05 197.76,-24.92 187.38,-27.04 190.96,-33.05"/>
</g>
<!-- dx -->
<g id="node2" class="node">
<title>dx</title>
<polygon fill="lightgray" stroke="black" points="79.7,-84.82 54.7,-84.82 54.7,-67.82 79.7,-67.82 79.7,-84.82"/>
<text text-anchor="middle" x="67.2" y="-73.62" font-family="Times,serif" font-size="9.00">dx</text>
</g>
<!-- dx&#45;&gt;S -->
<g id="edge6" class="edge">
<title>dx&#45;&gt;S</title>
<path fill="none" stroke="green" stroke-width="0.29" stroke-dasharray="1,5" d="M79.53,-67.8C93.7,-59.14 117.66,-44.49 138.2,-31.82 139.16,-31.23 140.14,-30.62 141.13,-30.01"/>
<polygon fill="green" stroke="green" stroke-width="0.29" points="143.35,-32.75 150,-24.51 139.66,-26.8 143.35,-32.75"/>
</g>
<!-- dx&#45;&gt;L -->
<g id="edge7" class="edge">
<title>dx&#45;&gt;L</title>
<path fill="none" stroke="red" stroke-width="0.46" d="M60.4,-67.68C53.21,-59.6 41.58,-46.54 31.92,-35.69"/>
<polygon fill="red" stroke="red" stroke-width="0.46" points="34.28,-33.08 25.02,-27.94 29.06,-37.74 34.28,-33.08"/>
</g>
<!-- dx&#45;&gt;R -->
<g id="edge8" class="edge">
<title>dx&#45;&gt;R</title>
<path fill="none" stroke="red" stroke-width="0.18" d="M66.81,-67.68C66.47,-61.03 65.95,-51.01 65.47,-41.62"/>
<polygon fill="red" stroke="red" stroke-width="0.18" points="68.96,-41.31 64.95,-31.51 61.97,-41.67 68.96,-41.31"/>
</g>
<!-- dx&#45;&gt;U -->
<g id="edge9" class="edge">
<title>dx&#45;&gt;U</title>
<path fill="none" stroke="red" stroke-width="0.19" d="M73.21,-67.68C79.36,-59.88 89.17,-47.42 97.54,-36.8"/>
<polygon fill="red" stroke="red" stroke-width="0.19" points="100.4,-38.82 103.84,-28.8 94.9,-34.49 100.4,-38.82"/>
</g>
</g>
</svg>
