<?xml version="1.0" encoding="UTF-8" standalone="no"?>
<!DOCTYPE svg PUBLIC "-//W3C//DTD SVG 1.1//EN"
 "http://www.w3.org/Graphics/SVG/1.1/DTD/svg11.dtd">
<!-- Generated by graphviz version 2.43.0 (0)
 -->
<!-- Title: %3 Pages: 1 -->
<svg width="225pt" height="90pt"
 viewBox="0.00 0.00 224.99 89.99" xmlns="http://www.w3.org/2000/svg" xmlns:xlink="http://www.w3.org/1999/xlink">
<g id="graph0" class="graph" transform="scale(1 1) rotate(0) translate(4 85.99)">
<title>%3</title>
<polygon fill="white" stroke="transparent" points="-4,4 -4,-85.99 220.99,-85.99 220.99,4 -4,4"/>
<!-- &#45;1 -->
<g id="node1" class="node">
<title>&#45;1</title>
<polygon fill="lightgray" stroke="black" points="120.5,-81.99 96.49,-81.99 96.49,-64.99 120.5,-64.99 120.5,-81.99"/>
<text text-anchor="middle" x="108.5" y="-70.79" font-family="Times,serif" font-size="9.00">&#45;1</text>
</g>
<!-- 0 -->
<g id="node3" class="node">
<title>0</title>
<ellipse fill="lightblue" stroke="black" cx="155.5" cy="-14.5" rx="14.49" ry="14.49"/>
<text text-anchor="middle" x="155.5" y="-11.8" font-family="Times,serif" font-size="9.00">0</text>
</g>
<!-- &#45;1&#45;&gt;0 -->
<g id="edge1" class="edge">
<title>&#45;1&#45;&gt;0</title>
<path fill="none" stroke="red" stroke-width="0.17" stroke-dasharray="1,5" d="M115.03,-64.57C121.48,-56.75 131.58,-44.5 140.07,-34.2"/>
<polygon fill="red" stroke="red" stroke-width="0.17" points="142.78,-36.42 146.44,-26.48 137.38,-31.97 142.78,-36.42"/>
</g>
<!-- 1 -->
<g id="node4" class="node">
<title>1</title>
<ellipse fill="lightblue" stroke="black" cx="14.5" cy="-14.5" rx="14.49" ry="14.49"/>
<text text-anchor="middle" x="14.5" y="-11.8" font-family="Times,serif" font-size="9.00">1</text>
</g>
<!-- &#45;1&#45;&gt;1 -->
<g id="edge2" class="edge">
<title>&#45;1&#45;&gt;1</title>
<path fill="none" stroke="green" stroke-width="0.11" d="M96.59,-65.27C81.21,-55.95 54.17,-39.55 35.34,-28.14"/>
<polygon fill="green" stroke="green" stroke-width="0.11" points="36.97,-25.03 26.6,-22.84 33.34,-31.01 36.97,-25.03"/>
</g>
<!-- 2 -->
<g id="node5" class="node">
<title>2</title>
<ellipse fill="lightblue" stroke="black" cx="61.5" cy="-14.5" rx="14.49" ry="14.49"/>
<text text-anchor="middle" x="61.5" y="-11.8" font-family="Times,serif" font-size="9.00">2</text>
</g>
<!-- &#45;1&#45;&gt;2 -->
<g id="edge3" class="edge">
<title>&#45;1&#45;&gt;2</title>
<path fill="none" stroke="green" stroke-width="0.37" d="M101.96,-64.57C95.51,-56.75 85.41,-44.5 76.92,-34.2"/>
<polygon fill="green" stroke="green" stroke-width="0.37" points="79.61,-31.97 70.55,-26.48 74.21,-36.42 79.61,-31.97"/>
</g>
<!-- 3 -->
<g id="node6" class="node">
<title>3</title>
<ellipse fill="lightblue" stroke="black" cx="108.5" cy="-14.5" rx="14.49" ry="14.49"/>
<text text-anchor="middle" x="108.5" y="-11.8" font-family="Times,serif" font-size="9.00">3</text>
</g>
<!-- &#45;1&#45;&gt;3 -->
<g id="edge4" class="edge">
<title>&#45;1&#45;&gt;3</title>
<path fill="none" stroke="red" stroke-width="0.35" d="M108.5,-64.57C108.5,-57.97 108.5,-48.23 108.5,-39.16"/>
<polygon fill="red" stroke="red" stroke-width="0.35" points="112,-39.05 108.5,-29.05 105,-39.05 112,-39.05"/>
</g>
<!-- 4 -->
<g id="node7" class="node">
<title>4</title>
<ellipse fill="lightblue" stroke="black" cx="202.5" cy="-14.5" rx="14.49" ry="14.49"/>
<text text-anchor="middle" x="202.5" y="-11.8" font-family="Times,serif" font-size="9.00">4</text>
</g>
<!-- &#45;1&#45;&gt;4 -->
<g id="edge5" class="edge">
<title>&#45;1&#45;&gt;4</title>
<path fill="none" stroke="green" stroke-width="0.71" d="M120.4,-65.27C135.78,-55.95 162.82,-39.55 181.65,-28.14"/>
<polygon fill="green" stroke="green" stroke-width="0.71" points="183.65,-31.01 190.39,-22.84 180.02,-25.03 183.65,-31.01"/>
</g>
<!-- &#45;2 -->
<g id="node2" class="node">
<title>&#45;2</title>
<polygon fill="lightgray" stroke="black" points="76.5,-81.99 52.49,-81.99 52.49,-64.99 76.5,-64.99 76.5,-81.99"/>
<text text-anchor="middle" x="64.5" y="-70.79" font-family="Times,serif" font-size="9.00">&#45;2</text>
</g>
<!-- &#45;2&#45;&gt;0 -->
<g id="edge6" class="edge">
<title>&#45;2&#45;&gt;0</title>
<path fill="none" stroke="green" stroke-width="0.29" stroke-dasharray="1,5" d="M76.39,-65.04C91.24,-55.74 116.89,-39.68 134.94,-28.37"/>
<polygon fill="green" stroke="green" stroke-width="0.29" points="136.98,-31.22 143.6,-22.95 133.26,-25.29 136.98,-31.22"/>
</g>
<!-- &#45;2&#45;&gt;1 -->
<g id="edge7" class="edge">
<title>&#45;2&#45;&gt;1</title>
<path fill="none" stroke="red" stroke-width="0.46" d="M57.54,-64.57C50.6,-56.65 39.68,-44.2 30.57,-33.82"/>
<polygon fill="red" stroke="red" stroke-width="0.46" points="32.99,-31.28 23.77,-26.07 27.73,-35.89 32.99,-31.28"/>
</g>
<!-- &#45;2&#45;&gt;2 -->
<g id="edge8" class="edge">
<title>&#45;2&#45;&gt;2</title>
<path fill="none" stroke="red" stroke-width="0.18" d="M64.08,-64.57C63.73,-57.97 63.22,-48.23 62.74,-39.16"/>
<polygon fill="red" stroke="red" stroke-width="0.18" points="66.23,-38.85 62.21,-29.05 59.24,-39.22 66.23,-38.85"/>
</g>
<!-- &#45;2&#45;&gt;3 -->
<g id="edge9" class="edge">
<title>&#45;2&#45;&gt;3</title>
<path fill="none" stroke="red" stroke-width="0.19" d="M70.61,-64.57C76.59,-56.82 85.92,-44.74 93.82,-34.51"/>
<polygon fill="red" stroke="red" stroke-width="0.19" points="96.68,-36.53 100.02,-26.48 91.14,-32.25 96.68,-36.53"/>
</g>
</g>
</svg>
